<?xml version="1.0" standalone="no"?><!DOCTYPE svg PUBLIC "-//W3C//DTD SVG 1.1//EN" "http://www.w3.org/Graphics/SVG/1.1/DTD/svg11.dtd"><svg t="1738155151426" class="icon" viewBox="0 0 1153 1024" version="1.1" xmlns="http://www.w3.org/2000/svg" p-id="5888" xmlns:xlink="http://www.w3.org/1999/xlink" width="225.1953125" height="200"><path d="M1004.367756 203.015251h-134.971678L829.239216 0h-539.886711l-40.156862 203.015251h-134.971678A114.223965 114.223965 0 0 0 0.446187 316.793028v526.50109a114.223965 114.223965 0 0 0 113.777778 113.777777h892.374728a114.223965 114.223965 0 0 0 113.777778-113.777777V316.793028a116.901089 116.901089 0 0 0-116.008715-113.777777z m47.965142 640.278867a49.526797 49.526797 0 0 1-49.08061 49.08061h-892.374728a49.526797 49.526797 0 0 1-49.08061-49.08061V316.793028a49.526797 49.526797 0 0 1 49.08061-49.08061h188.514161l40.156863-203.01525h433.917211l40.156863 203.01525h188.514161a49.526797 49.526797 0 0 1 49.08061 49.08061l1.115469 526.50109z" fill="#00C153" p-id="5889"></path><path d="M160.627451 795.328976h794.213508V358.065359H160.627451z m64.697168-373.681917h664.819172v307.869281H776.366013V600.122004h-64.697168v129.394336H590.082789V600.122004h-64.697168v129.394336H403.799564V600.122004h-64.697167v129.394336H225.324619V421.647059z" fill="#00C153" p-id="5890"></path><path d="M1037.831808 269.943355l-157.281045-22.309368L806.929847 66.928105h-484.113289l-40.156863 147.24183-134.971678-11.154684c-62.466231 0-113.777778 107.084967-113.777777 169.551198v537.655773a114.223965 114.223965 0 0 0 113.777777 113.777778h892.374728a114.223965 114.223965 0 0 0 113.777778-113.777778V383.721133a116.901089 116.901089 0 0 0-116.008715-113.777778z m0 655.895425l-892.374727 33.464052a49.526797 49.526797 0 0 1-49.08061-49.08061V372.566449c0-26.771242 22.309368-104.854031 49.08061-104.854031l132.74074-22.309368 29.002179-203.01525h500.845316l40.156863 191.860566h188.514161c26.771242 0 49.08061 122.701525 49.08061 149.472767l-33.464052 526.501089h33.464052C1085.350763 936.993464 1064.156863 925.83878 1037.831808 925.83878z" fill="#00C153" opacity=".3" p-id="5891"></path><path d="M194.091503 862.257081v55.77342h905.760349V358.065359H194.091503z m64.697168-440.610022h664.819172v-37.925926H258.788671z" fill="#00C153" opacity=".3" p-id="5892"></path></svg>